<?xml version="1.0" encoding="UTF-8" standalone="no"?>
<!-- Created with Inkscape (http://www.inkscape.org/) -->

<svg
   width="256"
   height="256"
   viewBox="0 0 67.733332 67.733333"
   version="1.1"
   id="svg1"
   xml:space="preserve"
   sodipodi:docname="thaqib.svg"
   inkscape:version="1.4.2 (f4327f4, 2025-05-13)"
   xmlns:inkscape="http://www.inkscape.org/namespaces/inkscape"
   xmlns:sodipodi="http://sodipodi.sourceforge.net/DTD/sodipodi-0.dtd"
   xmlns="http://www.w3.org/2000/svg"
   xmlns:svg="http://www.w3.org/2000/svg"><sodipodi:namedview
     id="namedview1"
     pagecolor="#505050"
     bordercolor="#ffffff"
     borderopacity="1"
     inkscape:showpageshadow="0"
     inkscape:pageopacity="0"
     inkscape:pagecheckerboard="1"
     inkscape:deskcolor="#505050"
     inkscape:document-units="mm"
     inkscape:zoom="3.1523438"
     inkscape:cx="86.60223"
     inkscape:cy="117.21437"
     inkscape:window-width="1920"
     inkscape:window-height="1009"
     inkscape:window-x="-8"
     inkscape:window-y="-8"
     inkscape:window-maximized="1"
     inkscape:current-layer="svg1" /><defs
     id="defs1" /><path
     style="display:inline;fill:#1a1c1e;fill-opacity:1"
     d="m 31.371772,50.481529 c -0.735538,-0.499191 -1.373429,-0.943707 -1.417535,-0.987814 -0.06283,-0.06283 0.09637,-0.341885 0.73516,-1.288648 0.448444,-0.66465 0.84864,-1.245029 0.889324,-1.289731 0.05713,-0.06278 0.405005,0.137196 1.528223,0.878484 0.799839,0.527868 1.446725,0.988859 1.437525,1.024425 -0.04048,0.15648 -1.69838,2.576751 -1.763198,2.573984 -0.03969,-0.0017 -0.673962,-0.411509 -1.409499,-0.9107 z m 12.086038,0.217972 c 0,-0.02496 0.114953,-0.290678 0.255451,-0.590493 0.17064,-0.364136 0.329855,-0.601102 0.479557,-0.713741 0.300077,-0.225786 1.369753,-0.75539 2.486678,-1.231171 1.040346,-0.443161 4.175316,-1.564666 4.227599,-1.512382 0.03902,0.03901 -0.459938,0.945164 -0.616251,1.119172 -0.05574,0.06205 -0.43279,0.221823 -0.837892,0.355053 -1.382082,0.45454 -2.917895,1.09404 -4.406435,1.834805 -1.740993,0.866396 -1.588707,0.795582 -1.588707,0.738757 z M 11.873176,49.340571 C 9.0984897,49.088495 6.9577089,48.407091 5.5630313,47.332071 4.9877138,46.888615 4.1633419,45.990961 3.8092583,45.422398 2.8885053,43.943915 2.5301686,42.460466 2.5997131,40.415102 2.6430647,39.140092 2.821443,38.173588 3.2410259,36.940287 3.5602846,36.001873 4.4091852,34.236911 4.7012971,33.904214 L 4.9077903,33.669031 4.7061072,33.364545 C 4.5951814,33.197078 4.4359872,32.862034 4.3523421,32.620003 4.2173605,32.229427 4.2007433,32.060946 4.2045568,31.121613 c 0.00496,-1.222511 0.096622,-1.707384 0.6189456,-3.274219 0.3329218,-0.998678 0.6545049,-1.745021 1.4606669,-3.389973 0.4380349,-0.893799 0.594997,-1.1272 0.594997,-0.884753 0,0.04999 -0.1455132,0.578414 -0.3233626,1.174265 -0.845765,2.833578 -1.028351,3.693309 -1.0307288,4.853326 -0.00171,0.835604 0.013452,0.960002 0.1552826,1.273789 0.2811477,0.622012 0.7834617,0.913481 1.2875636,0.747112 0.443061,-0.146223 1.0429048,-0.946825 1.2300073,-1.64167 0.045002,-0.167126 0.1143715,-0.280012 0.1720686,-0.280012 0.1275733,0 0.1277957,0.484107 6.078e-4,1.322916 -0.2593637,1.710514 -0.9055431,2.821772 -1.7903939,3.079005 -0.4139898,0.12035 -0.7715305,0.09537 -1.1052737,-0.07721 -0.1668717,-0.08629 -0.2141316,-0.0887 -0.2873649,-0.01464 -0.1357227,0.137249 -0.8049739,1.906808 -0.9889314,2.614822 -0.3977722,1.530942 -0.4729948,3.548912 -0.1659616,4.452196 0.6520539,1.918327 2.8984388,3.461897 5.9183341,4.066696 3.3410946,0.669125 6.7304646,0.646517 10.9510686,-0.07305 4.332337,-0.738614 8.014943,-1.996213 14.243943,-4.864263 1.107142,-0.509767 1.658973,-0.729666 1.852083,-0.738036 l 0.275067,-0.01192 -0.0066,0.46302 c -0.0036,0.254662 -0.02944,0.790443 -0.05735,1.190625 -0.124643,1.787315 0.506116,2.803598 2.039817,3.28657 0.533749,0.168081 1.879963,0.232326 2.615277,0.124809 1.209192,-0.176807 3.230148,-0.766041 4.702359,-1.371027 1.300126,-0.534271 2.652133,-1.353631 3.199912,-1.939252 0.359543,-0.38438 0.410383,-0.601108 0.30493,-1.299904 -0.357712,-2.370409 -2.15475,-4.731044 -4.520442,-5.938166 -1.192376,-0.608424 -1.884453,-0.554094 -2.703737,0.21225 -0.35314,0.330321 -0.513996,0.584039 -0.513996,0.810728 0,0.205178 0.451817,0.629314 0.762168,0.715475 0.365989,0.101607 0.559339,0.09313 1.35463,-0.0594 0.746917,-0.143253 1.414624,-0.180442 1.785806,-0.09946 0.30275,0.06605 0.7739,0.313988 1.035143,0.544736 0.458181,0.404698 1.064073,1.415698 1.355265,2.261415 0.137996,0.400787 0.165227,0.932223 0.04777,0.932223 -0.04145,0 -0.219898,-0.08893 -0.396546,-0.197624 -0.441334,-0.271555 -1.04427,-0.463834 -1.454463,-0.463834 -0.188676,0 -0.896549,0.09259 -1.57305,0.205754 -1.482998,0.248076 -2.472925,0.246771 -3.131473,-0.0041 -0.724162,-0.275897 -1.31555,-0.978397 -1.535935,-1.824512 -0.143226,-0.549881 -0.130794,-1.591404 0.02682,-2.246645 0.430646,-1.790348 1.882895,-3.84044 3.180281,-4.489496 0.426534,-0.213386 0.535828,-0.239931 0.987868,-0.239931 0.580515,0 1.040409,0.119424 1.656655,0.430197 2.151416,1.08496 4.078453,3.872254 4.697743,6.794884 0.532963,2.515222 0.167542,4.741197 -1.037056,6.317273 -1.225499,1.603422 -3.529498,3.018161 -6.66478,4.092418 -1.324499,0.453819 -2.011375,0.579397 -3.180433,0.581463 -0.950143,0.0017 -1.018663,-0.0074 -1.616987,-0.213705 -1.359938,-0.468966 -2.083233,-1.171597 -2.529025,-2.456774 -0.160335,-0.462232 -0.317934,-1.486994 -0.318441,-2.070619 -2.99e-4,-0.343933 -0.02431,-0.45774 -0.102944,-0.487914 -0.05986,-0.02297 -0.892865,0.347917 -2.000911,0.890885 -3.919833,1.92081 -6.71048,3.051929 -9.736639,3.946502 -2.84711,0.841645 -4.173121,1.142236 -6.15295,1.394801 -0.976124,0.124523 -4.887529,0.18463 -5.918664,0.09095 z m 44.23183,-0.658706 c -1.778627,-0.465972 -2.82654,-1.869523 -3.38539,-4.534315 -0.409846,-1.954288 -0.554127,-4.316618 -0.662254,-10.843125 -0.09833,-5.935213 -0.422668,-10.486983 -0.928508,-13.030728 -0.22797,-1.146406 -0.33716,-1.477027 -0.555558,-1.682201 -0.38941,-0.365832 -0.548455,-0.140411 -1.466878,2.079076 -0.316137,0.763984 -0.584589,1.400745 -0.596561,1.415025 -0.01197,0.01428 -0.07109,-0.01497 -0.131377,-0.06501 -0.09227,-0.07657 -0.103673,-0.180114 -0.07208,-0.654348 0.131657,-1.976488 1.288208,-5.122156 2.179598,-5.928224 0.194265,-0.175671 0.305222,-0.224477 0.510329,-0.224477 0.647997,0 1.142729,0.905009 1.681404,3.075781 0.579921,2.336985 0.789041,4.537956 0.898709,9.458854 0.03648,1.637109 0.0977,4.375546 0.136031,6.085416 0.143492,6.4006 0.212325,7.531911 0.52842,8.684893 0.450566,1.643477 1.441584,2.433431 3.224728,2.570475 1.337681,0.102807 2.831788,-0.5933 3.055334,-1.423486 0.05648,-0.20975 0.04892,-0.32744 -0.0374,-0.582525 -0.165032,-0.487659 -0.501951,-1.124023 -0.948798,-1.792066 -0.22237,-0.332447 -0.448072,-0.70919 -0.501562,-0.837209 -0.123148,-0.294735 -0.123208,-0.947437 -1.34e-4,-1.460707 0.160279,-0.668425 0.675701,-1.982432 0.78649,-2.005058 0.142407,-0.02908 0.496079,0.478613 0.959019,1.376672 0.731773,1.419572 0.95486,2.404191 0.95166,4.200261 -0.0032,1.768489 -0.266198,3.09228 -0.827394,4.163875 -0.288257,0.550421 -1.090589,1.349164 -1.626672,1.619393 -0.925989,0.466775 -2.16547,0.597227 -3.171151,0.333755 z M 22.794837,40.559689 c -0.01904,-0.03081 0.0085,-0.217326 0.06118,-0.414491 0.367749,-1.376127 0.508888,-2.976166 0.364743,-4.13496 -0.196596,-1.58045 -0.531332,-2.761807 -1.331065,-4.697609 -0.629915,-1.524749 -0.749311,-1.983533 -0.702319,-2.698698 0.02906,-0.442195 0.07742,-0.610157 0.312046,-1.083648 0.498058,-1.005124 1.326408,-1.654319 2.446166,-1.917111 0.272182,-0.06388 0.462219,-0.142964 0.462219,-0.19236 0,-0.105795 -0.575492,-0.564468 -0.851869,-0.678947 -0.307391,-0.127326 -0.730032,0.01118 -1.129184,0.370053 -0.421429,0.378901 -0.495929,0.374501 -0.442134,-0.02611 0.09162,-0.682312 0.63913,-1.471075 1.463182,-2.107923 l 0.263693,-0.203789 -0.122084,-0.587388 c -0.215233,-1.035555 -0.68603,-2.209152 -1.068616,-2.66383 -0.214453,-0.254862 -0.346332,-0.265965 -0.374089,-0.03149 -0.01151,0.09724 -0.0507,0.186121 -0.08708,0.197512 -0.03638,0.01139 -0.207111,-0.194672 -0.379403,-0.45792 -0.172283,-0.263253 -0.494979,-0.67082 -0.717093,-0.905709 l -0.403845,-0.427072 0.02257,-0.909164 c 0.02648,-1.066795 0.06231,-1.144691 0.435321,-0.946542 0.339763,0.180485 1.081947,0.891801 1.475188,1.413835 0.59056,0.783976 1.158759,2.032936 1.48709,3.268779 0.07113,0.26773 0.138942,0.415762 0.166657,0.363802 0.0257,-0.04819 0.09708,-0.400147 0.158632,-0.782139 0.243182,-1.509323 0.566055,-2.600937 1.040169,-3.516758 0.444803,-0.859202 0.871477,-1.174672 1.467799,-1.085248 0.358314,0.05373 0.669811,0.245196 0.840955,0.516896 0.250233,0.39726 0.08236,1.55769 -0.243433,1.682707 -0.05561,0.02134 -0.229704,-0.05531 -0.394592,-0.173722 -0.385943,-0.277163 -0.650088,-0.350031 -0.963211,-0.265715 -0.477737,0.128641 -0.950447,0.918741 -1.249688,2.088759 -0.126179,0.493359 -0.355216,2.022912 -0.43558,2.908896 l -0.04255,0.469096 0.45501,0.252602 c 1.295689,0.719309 2.161219,1.457472 2.321568,1.979937 0.08492,0.276685 0.01167,0.856349 -0.146643,1.160486 -0.201941,0.387954 -0.368894,0.469021 -1.100459,0.53434 -0.840475,0.07504 -1.430871,0.169725 -1.909299,0.306194 -0.715221,0.204013 -1.493852,0.68038 -1.725965,1.055945 -0.164218,0.265711 -0.157114,0.296155 0.483904,2.073605 0.914066,2.53457 1.106038,3.393757 1.156063,5.174047 0.05252,1.868988 -0.162835,3.263286 -0.705275,4.566284 -0.213153,0.512019 -0.293664,0.629765 -0.35868,0.524568 z m -7.407044,-3.79014 c -0.01482,-0.05043 -0.07497,-0.381535 -0.133663,-0.735794 -0.117298,-0.707949 -0.41933,-1.715948 -0.698886,-2.332455 -0.305218,-0.6731 -0.730766,-1.06056 -0.730766,-0.665362 0,0.292247 -0.12218,0.244895 -0.369049,-0.143027 -0.133788,-0.210229 -0.437077,-0.604408 -0.673977,-0.875952 l -0.430726,-0.493717 0.04351,-0.761859 c 0.05144,-0.900739 0.105751,-1.001431 0.446365,-0.827623 0.122759,0.06264 0.461322,0.355935 0.752364,0.651765 0.829948,0.843603 1.378289,1.872899 1.792155,3.364066 0.2348,0.845994 0.23163,0.839005 0.292453,0.644678 0.02847,-0.09095 0.13265,-0.596966 0.231518,-1.124479 0.301597,-1.609172 0.850932,-2.949662 1.419147,-3.463011 0.232548,-0.210093 0.309781,-0.241156 0.599594,-0.241156 0.421216,0 0.716038,0.122809 0.943351,0.392956 0.150514,0.178876 0.178813,0.274849 0.178813,0.606431 0,0.371789 -0.11266,0.768859 -0.272943,0.961989 -0.08595,0.103565 -0.260068,0.02962 -0.53588,-0.227566 -0.132923,-0.123949 -0.273072,-0.175938 -0.532222,-0.197429 -0.309019,-0.02563 -0.377705,-0.0074 -0.565001,0.150237 -0.573406,0.482489 -0.909305,1.517819 -1.201801,3.704268 -0.073,0.545703 -0.162368,1.098962 -0.19859,1.229465 -0.07707,0.277673 -0.312346,0.531338 -0.355769,0.383575 z m 16.921708,-0.315237 c -1.475274,-0.670124 -1.189083,-3.890538 0.692035,-7.787239 0.445612,-0.923076 0.600546,-1.154032 0.600546,-0.895215 0,0.07189 -0.191116,0.706165 -0.424701,1.409502 -0.487386,1.46754 -0.665275,2.232825 -0.767228,3.300644 -0.121573,1.273311 0.03888,2.006155 0.485925,2.219334 0.589301,0.281018 1.284668,-0.287028 1.694642,-1.384356 0.0406,-0.108669 0.09973,-0.167169 0.142339,-0.140832 0.16502,0.101988 -0.187808,1.655059 -0.529997,2.332933 -0.371352,0.735644 -0.79391,1.066656 -1.361657,1.066656 -0.145521,0 -0.384878,-0.05464 -0.531904,-0.121427 z m 24.116013,-1.259216 c -0.744078,-0.502057 -1.36349,-0.944695 -1.376472,-0.983639 -0.02258,-0.06773 1.67776,-2.659896 1.744763,-2.659896 0.01782,0 0.601653,0.375026 1.297407,0.83339 0.695754,0.458365 1.297801,0.845975 1.337883,0.861356 0.130438,0.05005 0.272109,-0.12333 1.060482,-1.297871 0.427333,-0.636654 0.810687,-1.157552 0.851898,-1.157552 0.118921,0 2.753834,1.763531 2.753834,1.843125 0,0.126133 -1.683422,2.6186 -1.769686,2.62019 -0.04563,8.4e-4 -0.650355,-0.37659 -1.343828,-0.838734 -1.010914,-0.673693 -1.282938,-0.826992 -1.37224,-0.773323 -0.06126,0.03682 -0.470739,0.599212 -0.909954,1.249769 -0.439216,0.650557 -0.826169,1.190297 -0.859896,1.199424 -0.03373,0.0091 -0.670114,-0.394182 -1.414191,-0.896239 z m 1.534769,-3.544618 c -0.736699,-0.490026 -1.339453,-0.909033 -1.339453,-0.931126 0,-0.02209 0.174065,-0.282928 0.386811,-0.579632 0.212746,-0.296703 0.600364,-0.859442 0.861375,-1.250529 0.261011,-0.391087 0.503784,-0.711067 0.539496,-0.711067 0.101755,0 2.776381,1.799691 2.776381,1.86816 0,0.07284 -1.181521,1.814693 -1.503378,2.216345 -0.123899,0.154615 -0.260485,0.280598 -0.303525,0.279962 -0.04304,-6.37e-4 -0.681007,-0.402088 -1.417707,-0.892113 z M 40.812564,28.010596 c -0.781852,-0.524387 -1.427674,-0.976547 -1.435162,-1.0048 -0.02815,-0.106233 1.685285,-2.498616 1.783844,-2.49069 0.05523,0.0044 0.728967,0.415186 1.49719,0.912766 0.768222,0.497579 1.425491,0.886938 1.460596,0.865242 0.03511,-0.0217 0.427217,-0.573828 0.871359,-1.226959 0.444142,-0.653131 0.839111,-1.187395 0.877709,-1.187255 0.0585,2.13e-4 2.692653,1.707201 2.799757,1.814305 0.02472,0.02472 -1.520872,2.392669 -1.747099,2.676672 -0.01156,0.01451 -0.63581,-0.38128 -1.387218,-0.879542 -0.751409,-0.498262 -1.414221,-0.896727 -1.472917,-0.885478 -0.0587,0.01125 -0.47065,0.540756 -0.915455,1.176681 -0.444805,0.635926 -0.831758,1.162137 -0.859896,1.169358 -0.02814,0.0072 -0.690856,-0.415914 -1.472708,-0.9403 z M 55.36406,27.410169 c 0,-0.08037 0.411794,-0.810615 0.526617,-0.933863 0.06476,-0.06951 0.546381,-0.323187 1.070276,-0.56373 1.091288,-0.501058 4.591603,-1.967786 4.696081,-1.967786 0.09963,0 -0.315059,0.72857 -0.528683,0.928839 -0.09866,0.09249 -0.580219,0.327287 -1.070141,0.521772 -1.17827,0.467742 -2.967847,1.257773 -3.849689,1.699493 -0.682983,0.342109 -0.844461,0.402396 -0.844461,0.315275 z m 1.941421,-3.93608 c 0.213887,-0.779742 0.318195,-1.524911 0.285956,-2.04284 -0.07661,-1.230684 -0.721163,-2.635729 -1.723172,-3.756276 l -0.371914,-0.415912 3.83e-4,-0.477057 c 3.97e-4,-0.493723 0.09631,-1.225287 0.169963,-1.296369 0.06753,-0.06517 0.803631,0.771495 1.19106,1.353765 0.473985,0.712355 0.97724,1.783066 1.163383,2.475182 0.201349,0.748652 0.214675,2.034974 0.02893,2.792752 -0.13891,0.566711 -0.551152,1.454527 -0.695132,1.497054 -0.06891,0.02035 -0.08161,-0.01309 -0.04946,-0.130299 z M 7.4744788,20.879261 c 0,-0.166796 0.2311832,-0.290465 1.2567707,-0.672293 1.2326087,-0.458903 2.1096715,-0.859007 2.6077755,-1.189629 0.648922,-0.43073 0.471422,-0.534949 -0.813308,-0.477536 -0.459444,0.02053 -1.0998967,0.08506 -1.4232279,0.143397 -0.3233313,0.05834 -0.6058662,0.08807 -0.6278555,0.06609 -0.061124,-0.06112 0.4173245,-0.927276 0.8390634,-1.518989 0.2953289,-0.414355 0.4480854,-0.564184 0.707396,-0.69384 0.321395,-0.160697 0.369933,-0.16535 1.719792,-0.164876 1.318211,4.64e-4 1.952419,0.06573 2.211376,0.227577 0.457838,0.286144 -1.89614,3.241817 -3.003759,3.771544 -0.166055,0.07942 -0.675901,0.180395 -1.3573567,0.268831 -0.6002734,0.0779 -1.2942701,0.183726 -1.5422149,0.235167 -0.5537805,0.114891 -0.5744516,0.115056 -0.5744516,0.0046 z M 32.280483,20.587787 c -0.778579,-0.391172 -0.720111,-1.442944 0.200949,-3.614834 0.445015,-1.049362 0.717481,-1.572398 0.83953,-1.611592 0.04585,-0.01472 0.08242,0.02747 0.08209,0.09471 -9.12e-4,0.186862 -0.412226,1.301924 -0.758823,2.057149 -0.214366,0.467098 -0.322579,0.799455 -0.34662,1.064588 -0.03249,0.358243 -0.02097,0.401129 0.163015,0.607042 0.178563,0.199847 0.239347,0.22401 0.620103,0.246506 0.362052,0.02139 0.473915,-0.0016 0.785937,-0.161674 0.649123,-0.332972 0.485592,-0.654123 -0.502324,-0.986491 -0.31439,-0.105771 -0.58407,-0.224038 -0.59929,-0.262814 -0.04845,-0.123433 0.356381,-0.986458 0.473961,-1.010407 0.186149,-0.03792 0.941187,0.377202 1.152619,0.633706 0.225459,0.273521 0.401076,0.73211 0.401076,1.047332 0,0.117017 -0.05984,0.406494 -0.132975,0.64328 -0.157034,0.508418 -0.60746,1.05677 -1.023167,1.245614 -0.352825,0.160277 -1.04475,0.164298 -1.356082,0.0079 z m 7.605452,-0.499885 c 0,-0.200885 0.21958,-0.329722 1.190625,-0.698589 0.563894,-0.214204 1.229283,-0.482506 1.478643,-0.596226 0.530234,-0.241814 1.564066,-0.900896 1.564066,-0.997115 0,-0.0365 -0.07768,-0.08586 -0.172617,-0.109693 -0.279224,-0.07008 -1.930372,0.0201 -2.52995,0.138172 -0.304055,0.05988 -0.566506,0.09519 -0.583224,0.07847 -0.05003,-0.05003 0.274444,-0.644336 0.69535,-1.273597 0.600673,-0.898016 0.920381,-1.019272 2.685271,-1.018443 0.89386,4.19e-4 2.17019,0.125837 2.267131,0.222779 0.184007,0.184006 -1.254313,2.131529 -2.308929,3.126349 -0.55046,0.519249 -0.790678,0.613643 -2.003608,0.787323 -0.585927,0.0839 -1.313568,0.214328 -1.616981,0.289843 -0.650179,0.16182 -0.665777,0.163009 -0.665777,0.05072 z M 53.55299,18.504296 c -0.143477,-0.226374 -0.541442,-1.336403 -0.705505,-1.967839 -0.218117,-0.839475 -0.198028,-1.342961 0.08709,-2.182812 0.280261,-0.825534 0.619989,-1.5875 0.707798,-1.5875 0.166506,0 0.391628,1.500478 0.441622,2.94349 0.05066,1.462285 -0.141906,2.943489 -0.382678,2.943489 -0.0297,0 -0.09645,-0.06697 -0.148331,-0.148828 z"
     id="path4" /></svg>
